<svg width="21" height="24" viewBox="0 0 21 24" fill="none" xmlns="http://www.w3.org/2000/svg">
<g id="arrow-left" clip-path="url(#clip0_8361_55)">
<path id="Primary" d="M0.44043 10.9407C-0.145508 11.5267 -0.145508 12.4782 0.44043 13.0642L7.94043 20.5642C8.52637 21.1501 9.47793 21.1501 10.0639 20.5642C10.6498 19.9782 10.6498 19.0267 10.0639 18.4407L5.11855 13.5001H19.4998C20.3295 13.5001 20.9998 12.8298 20.9998 12.0001C20.9998 11.1704 20.3295 10.5001 19.4998 10.5001H5.12324L10.0592 5.55947C10.6451 4.97353 10.6451 4.02197 10.0592 3.43604C9.47324 2.8501 8.52168 2.8501 7.93574 3.43604L0.435742 10.936L0.44043 10.9407Z" fill="#183575"/>
</g>
<defs>
<clipPath id="clip0_8361_55">
<rect width="21" height="24" fill="white"/>
</clipPath>
</defs>
</svg>
