<svg width="51" height="51" viewBox="0 0 51 51" fill="none" xmlns="http://www.w3.org/2000/svg">
<path id="calculate" d="M14.8272 42.0768H18.9939V36.5213H24.5494V32.3546H18.9939V26.799H14.8272V32.3546H9.27166V36.5213H14.8272V42.0768ZM28.7161 39.9935H42.605V35.8268H28.7161V39.9935ZM28.7161 33.049H42.605V28.8824H28.7161V33.049ZM9.9661 17.6324H23.855V13.4657H9.9661V17.6324ZM6.49388 50.4102C4.9661 50.4102 3.65823 49.8662 2.57027 48.7782C1.48231 47.6902 0.938324 46.3824 0.938324 44.8546V5.96571C0.938324 4.43793 1.48231 3.13006 2.57027 2.0421C3.65823 0.954138 4.9661 0.410156 6.49388 0.410156H45.3828C46.9105 0.410156 48.2184 0.954138 49.3064 2.0421C50.3943 3.13006 50.9383 4.43793 50.9383 5.96571V44.8546C50.9383 46.3824 50.3943 47.6902 49.3064 48.7782C48.2184 49.8662 46.9105 50.4102 45.3828 50.4102H6.49388ZM31.7717 22.4935L35.6605 18.6046L39.5494 22.4935L42.4661 19.5768L38.5772 15.549L42.4661 11.6602L39.5494 8.74349L35.6605 12.6324L31.7717 8.74349L28.855 11.6602L32.7439 15.549L28.855 19.5768L31.7717 22.4935Z" fill="#183575"/>
</svg>
