<svg width="21" height="21" viewBox="0 0 21 21" fill="none" xmlns="http://www.w3.org/2000/svg">
<g id="up-right-from-square">
<path id="Primary" d="M14.0625 1C13.5838 1 13.1496 1.28945 12.9641 1.73477C12.7785 2.18008 12.8824 2.68848 13.2201 3.02988L14.7564 4.5625L8.47383 10.8488C8.00996 11.3127 8.00996 12.066 8.47383 12.5299C8.9377 12.9938 9.69102 12.9938 10.1549 12.5299L16.4375 6.24355L17.9738 7.77988C18.3152 8.12129 18.8236 8.22148 19.2689 8.03594C19.7143 7.85039 20.0037 7.41992 20.0037 6.9375V2.1875C20.0037 1.53066 19.473 1 18.8162 1L14.0625 1ZM3.96875 2.1875C2.32852 2.1875 1 3.51602 1 5.15625V17.0312C1 18.6715 2.32852 20 3.96875 20H15.8438C17.484 20 18.8125 18.6715 18.8125 17.0312V12.875C18.8125 12.2182 18.2818 11.6875 17.625 11.6875C16.9682 11.6875 16.4375 12.2182 16.4375 12.875V17.0312C16.4375 17.3578 16.1703 17.625 15.8438 17.625H3.96875C3.64219 17.625 3.375 17.3578 3.375 17.0312V5.15625C3.375 4.82969 3.64219 4.5625 3.96875 4.5625H8.125C8.78184 4.5625 9.3125 4.03184 9.3125 3.375C9.3125 2.71816 8.78184 2.1875 8.125 2.1875H3.96875Z" fill="#183575"/>
</g>
</svg>
