<svg width="68" height="51" viewBox="0 0 68 51" fill="none" xmlns="http://www.w3.org/2000/svg">
<path id="room_service" d="M0.639404 50.4102V43.7435H67.3105V50.4102H0.639404ZM3.97296 40.4102V37.0768C3.97296 29.9657 6.15366 23.6879 10.5151 18.2435C14.8765 12.799 20.4741 9.3546 27.3078 7.91016V7.07682C27.3078 5.24349 27.9607 3.67405 29.2663 2.36849C30.5719 1.06293 32.1415 0.410156 33.9749 0.410156C35.8084 0.410156 37.3779 1.06293 38.6836 2.36849C39.9892 3.67405 40.6421 5.24349 40.6421 7.07682V7.91016C47.5314 9.3546 53.1429 12.799 57.4765 18.2435C61.8101 23.6879 63.9769 29.9657 63.9769 37.0768V40.4102H3.97296Z" fill="white"/>
</svg>
