<svg width="51" height="51" viewBox="0 0 51 51" fill="none" xmlns="http://www.w3.org/2000/svg">
<path id="table" d="M0.0317383 44.8546V5.96571C0.0317383 4.43793 0.57572 3.13006 1.66368 2.0421C2.75165 0.954138 4.05952 0.410156 5.58729 0.410156H44.4762C46.004 0.410156 47.3118 0.954138 48.3998 2.0421C49.4878 3.13006 50.0317 4.43793 50.0317 5.96571V44.8546C50.0317 46.3824 49.4878 47.6902 48.3998 48.7782C47.3118 49.8662 46.004 50.4102 44.4762 50.4102H5.58729C4.05952 50.4102 2.75165 49.8662 1.66368 48.7782C0.57572 47.6902 0.0317383 46.3824 0.0317383 44.8546ZM5.58729 17.0768H44.4762V5.96571H5.58729V17.0768ZM20.379 30.9657H29.6845V22.6324H20.379V30.9657ZM20.379 44.8546H29.6845V36.5213H20.379V44.8546ZM5.58729 30.9657H14.8234V22.6324H5.58729V30.9657ZM35.2401 30.9657H44.4762V22.6324H35.2401V30.9657ZM5.58729 44.8546H14.8234V36.5213H5.58729V44.8546ZM35.2401 44.8546H44.4762V36.5213H35.2401V44.8546Z" fill="white"/>
</svg>
